# xmcd CD database file
# Copyright (C) 1997 Ti Kan
#
# Track frame offsets:
#  150
#  19556
#  58251
#  81521
#  116226
#  154181
#
# Disc length: 2501 seconds
#
# Revision: 1
# Processed by: cddbd v1.4b41PL1 Copyright (c) Steve Scherf et al.
# Submitted via: CDWizzard Release:4.32
#
DISCID=4c09c306
DTITLE=Freaky Chakra - Budded on Earth to Bloom in Heaven
DYEAR=1900
DGENRE=
TTITLE0=Not underground/alternative Radio Edit
TTITLE1=First, Last, Always
TTITLE2=It's All Good
TTITLE3=Post-neo Ambient Jungle Potpourri
TTITLE4=Budded on Earth to Bloom in Heaven
TTITLE5=Instrumentally Yours
EXTD=
EXTT0=
EXTT1=
EXTT2=
EXTT3=
EXTT4=
EXTT5=
PLAYORDER=
